<svg xmlns="http://www.w3.org/2000/svg" viewBox="0 0 500 350"><mask id="b" x="0" y="0" width="500" height="350"><path fill="url(#a)" d="M0 0h500v350H0z"/></mask><g style="transform-origin:center center" stroke="#101828" stroke-width=".4" fill="none" mask="url(#b)"><path d="M0 0h12.5v12.5H0zM12.5 0H25v12.5H12.5zM25 0h12.5v12.5H25zM37.5 0H50v12.5H37.5zM50 0h12.5v12.5H50zM62.5 0H75v12.5H62.5zM75 0h12.5v12.5H75zM87.5 0H100v12.5H87.5zM100 0h12.5v12.5H100zM112.5 0H125v12.5h-12.5zM125 0h12.5v12.5H125zM137.5 0H150v12.5h-12.5zM150 0h12.5v12.5H150zM162.5 0H175v12.5h-12.5zM175 0h12.5v12.5H175zM187.5 0H200v12.5h-12.5zM200 0h12.5v12.5H200zM212.5 0H225v12.5h-12.5zM225 0h12.5v12.5H225zM237.5 0H250v12.5h-12.5zM250 0h12.5v12.5H250zM262.5 0H275v12.5h-12.5zM275 0h12.5v12.5H275zM287.5 0H300v12.5h-12.5zM300 0h12.5v12.5H300zM312.5 0H325v12.5h-12.5zM325 0h12.5v12.5H325zM337.5 0H350v12.5h-12.5zM350 0h12.5v12.5H350zM362.5 0H375v12.5h-12.5zM375 0h12.5v12.5H375zM387.5 0H400v12.5h-12.5zM400 0h12.5v12.5H400zM412.5 0H425v12.5h-12.5zM425 0h12.5v12.5H425zM437.5 0H450v12.5h-12.5zM450 0h12.5v12.5H450zM462.5 0H475v12.5h-12.5zM475 0h12.5v12.5H475zM487.5 0H500v12.5h-12.5zM0 12.5h12.5V25H0zM12.5 12.5H25V25H12.5zM25 12.5h12.5V25H25zM37.5 12.5H50V25H37.5zM50 12.5h12.5V25H50zM62.5 12.5H75V25H62.5zM75 12.5h12.5V25H75zM87.5 12.5H100V25H87.5zM100 12.5h12.5V25H100zM112.5 12.5H125V25h-12.5zM125 12.5h12.5V25H125zM137.5 12.5H150V25h-12.5zM150 12.5h12.5V25H150zM162.5 12.5H175V25h-12.5zM175 12.5h12.5V25H175zM187.5 12.5H200V25h-12.5zM200 12.5h12.5V25H200zM212.5 12.5H225V25h-12.5zM225 12.5h12.5V25H225zM237.5 12.5H250V25h-12.5zM250 12.5h12.5V25H250zM262.5 12.5H275V25h-12.5zM275 12.5h12.5V25H275zM287.5 12.5H300V25h-12.5zM300 12.5h12.5V25H300zM312.5 12.5H325V25h-12.5zM325 12.5h12.5V25H325zM337.5 12.5H350V25h-12.5zM350 12.5h12.5V25H350zM362.5 12.5H375V25h-12.5zM375 12.5h12.5V25H375zM387.5 12.5H400V25h-12.5zM400 12.5h12.5V25H400zM412.5 12.5H425V25h-12.5zM425 12.5h12.5V25H425zM437.5 12.5H450V25h-12.5zM450 12.5h12.5V25H450zM462.5 12.5H475V25h-12.5zM475 12.5h12.5V25H475zM487.5 12.5H500V25h-12.5zM0 25h12.5v12.5H0zM12.5 25H25v12.5H12.5zM25 25h12.5v12.5H25zM37.5 25H50v12.5H37.5zM50 25h12.5v12.5H50zM62.5 25H75v12.5H62.5zM75 25h12.5v12.5H75zM87.5 25H100v12.5H87.5zM100 25h12.5v12.5H100zM112.5 25H125v12.5h-12.5zM125 25h12.5v12.5H125zM137.5 25H150v12.5h-12.5zM150 25h12.5v12.5H150zM162.5 25H175v12.5h-12.5zM175 25h12.5v12.5H175zM187.5 25H200v12.5h-12.5zM200 25h12.5v12.5H200zM212.5 25H225v12.5h-12.5zM225 25h12.5v12.5H225zM237.5 25H250v12.5h-12.5zM250 25h12.5v12.5H250zM262.5 25H275v12.5h-12.5zM275 25h12.5v12.5H275zM287.5 25H300v12.5h-12.5zM300 25h12.5v12.5H300zM312.5 25H325v12.5h-12.5zM325 25h12.5v12.5H325zM337.5 25H350v12.5h-12.5zM350 25h12.5v12.5H350zM362.5 25H375v12.5h-12.5zM375 25h12.5v12.5H375zM387.5 25H400v12.5h-12.5zM400 25h12.5v12.5H400zM412.5 25H425v12.5h-12.5zM425 25h12.5v12.5H425zM437.5 25H450v12.5h-12.5zM450 25h12.5v12.5H450zM462.5 25H475v12.5h-12.5zM475 25h12.5v12.5H475zM487.5 25H500v12.5h-12.5zM0 37.5h12.5V50H0zM12.5 37.5H25V50H12.5zM25 37.5h12.5V50H25zM37.5 37.5H50V50H37.5zM50 37.5h12.5V50H50zM62.5 37.5H75V50H62.5zM75 37.5h12.5V50H75zM87.5 37.5H100V50H87.5zM100 37.5h12.5V50H100zM112.5 37.5H125V50h-12.5zM125 37.5h12.5V50H125zM137.5 37.5H150V50h-12.5zM150 37.5h12.5V50H150zM162.5 37.5H175V50h-12.5zM175 37.5h12.5V50H175zM187.5 37.5H200V50h-12.5zM200 37.5h12.5V50H200zM212.5 37.5H225V50h-12.5zM225 37.5h12.5V50H225zM237.5 37.5H250V50h-12.5zM250 37.5h12.5V50H250zM262.5 37.5H275V50h-12.5zM275 37.5h12.5V50H275zM287.5 37.5H300V50h-12.5zM300 37.5h12.5V50H300zM312.5 37.5H325V50h-12.5zM325 37.5h12.5V50H325zM337.5 37.5H350V50h-12.5zM350 37.5h12.5V50H350zM362.5 37.5H375V50h-12.5zM375 37.5h12.5V50H375zM387.5 37.5H400V50h-12.5zM400 37.5h12.5V50H400zM412.5 37.5H425V50h-12.5zM425 37.5h12.5V50H425zM437.5 37.5H450V50h-12.5zM450 37.5h12.5V50H450zM462.5 37.5H475V50h-12.5zM475 37.5h12.5V50H475zM487.5 37.5H500V50h-12.5zM0 50h12.5v12.5H0zM12.5 50H25v12.5H12.5zM25 50h12.5v12.5H25zM37.5 50H50v12.5H37.5zM50 50h12.5v12.5H50zM62.5 50H75v12.5H62.5zM75 50h12.5v12.5H75zM87.5 50H100v12.5H87.5zM100 50h12.5v12.5H100zM112.5 50H125v12.5h-12.5zM125 50h12.5v12.5H125zM137.5 50H150v12.5h-12.5zM150 50h12.5v12.5H150zM162.5 50H175v12.5h-12.5zM175 50h12.5v12.5H175zM187.5 50H200v12.5h-12.5zM200 50h12.5v12.5H200zM212.5 50H225v12.5h-12.5zM225 50h12.5v12.5H225zM237.5 50H250v12.5h-12.5zM250 50h12.5v12.5H250zM262.5 50H275v12.5h-12.5zM275 50h12.5v12.5H275zM287.5 50H300v12.5h-12.5zM300 50h12.5v12.5H300zM312.5 50H325v12.5h-12.5zM325 50h12.5v12.5H325zM337.5 50H350v12.5h-12.5zM350 50h12.5v12.5H350zM362.5 50H375v12.5h-12.5zM375 50h12.5v12.5H375zM387.5 50H400v12.5h-12.5zM400 50h12.5v12.5H400zM412.5 50H425v12.5h-12.5zM425 50h12.5v12.5H425zM437.5 50H450v12.5h-12.5zM450 50h12.5v12.5H450zM462.5 50H475v12.5h-12.5zM475 50h12.5v12.5H475zM487.5 50H500v12.5h-12.5zM0 62.5h12.5V75H0zM12.5 62.5H25V75H12.5zM25 62.5h12.5V75H25zM37.5 62.5H50V75H37.5zM50 62.5h12.5V75H50zM62.5 62.5H75V75H62.5zM75 62.5h12.5V75H75zM87.5 62.5H100V75H87.5zM100 62.5h12.5V75H100zM112.5 62.5H125V75h-12.5zM125 62.5h12.5V75H125zM137.5 62.5H150V75h-12.5zM150 62.5h12.5V75H150zM162.5 62.5H175V75h-12.5zM175 62.5h12.5V75H175zM187.5 62.5H200V75h-12.5zM200 62.5h12.5V75H200zM212.5 62.5H225V75h-12.5zM225 62.5h12.5V75H225zM237.5 62.5H250V75h-12.5zM250 62.5h12.5V75H250zM262.5 62.5H275V75h-12.5zM275 62.5h12.5V75H275zM287.5 62.5H300V75h-12.5zM300 62.5h12.5V75H300zM312.5 62.5H325V75h-12.5zM325 62.5h12.5V75H325zM337.5 62.5H350V75h-12.5zM350 62.5h12.5V75H350zM362.5 62.5H375V75h-12.5zM375 62.5h12.5V75H375zM387.5 62.5H400V75h-12.5zM400 62.5h12.5V75H400zM412.5 62.5H425V75h-12.5zM425 62.5h12.5V75H425zM437.5 62.5H450V75h-12.5zM450 62.5h12.5V75H450zM462.5 62.5H475V75h-12.5zM475 62.5h12.5V75H475zM487.5 62.5H500V75h-12.5zM0 75h12.5v12.5H0zM12.5 75H25v12.5H12.5zM25 75h12.5v12.5H25zM37.5 75H50v12.5H37.5zM50 75h12.5v12.5H50zM62.5 75H75v12.5H62.5zM75 75h12.5v12.5H75zM87.5 75H100v12.5H87.5zM100 75h12.5v12.5H100zM112.5 75H125v12.5h-12.5zM125 75h12.5v12.5H125zM137.5 75H150v12.5h-12.5zM150 75h12.5v12.5H150zM162.5 75H175v12.5h-12.5zM175 75h12.5v12.5H175zM187.5 75H200v12.5h-12.5zM200 75h12.5v12.5H200zM212.5 75H225v12.5h-12.5zM225 75h12.5v12.5H225zM237.5 75H250v12.5h-12.5zM250 75h12.5v12.5H250zM262.5 75H275v12.5h-12.5zM275 75h12.5v12.5H275zM287.5 75H300v12.5h-12.5zM300 75h12.5v12.5H300zM312.5 75H325v12.5h-12.5zM325 75h12.5v12.5H325zM337.5 75H350v12.5h-12.5zM350 75h12.5v12.5H350zM362.5 75H375v12.5h-12.5zM375 75h12.5v12.5H375zM387.5 75H400v12.5h-12.5zM400 75h12.5v12.5H400zM412.5 75H425v12.5h-12.5zM425 75h12.5v12.5H425zM437.5 75H450v12.5h-12.5zM450 75h12.5v12.5H450zM462.5 75H475v12.5h-12.5zM475 75h12.5v12.5H475zM487.5 75H500v12.5h-12.5zM0 87.5h12.5V100H0zM12.5 87.5H25V100H12.5zM25 87.5h12.5V100H25zM37.5 87.5H50V100H37.5zM50 87.5h12.5V100H50zM62.5 87.5H75V100H62.5zM75 87.5h12.5V100H75zM87.5 87.5H100V100H87.5zM100 87.5h12.5V100H100zM112.5 87.5H125V100h-12.5zM125 87.5h12.5V100H125zM137.5 87.5H150V100h-12.5zM150 87.5h12.5V100H150zM162.5 87.5H175V100h-12.5zM175 87.5h12.5V100H175zM187.5 87.5H200V100h-12.5zM200 87.5h12.5V100H200zM212.5 87.5H225V100h-12.5zM225 87.5h12.5V100H225zM237.5 87.5H250V100h-12.5zM250 87.5h12.5V100H250zM262.5 87.5H275V100h-12.5zM275 87.5h12.5V100H275zM287.5 87.5H300V100h-12.5zM300 87.5h12.5V100H300zM312.5 87.5H325V100h-12.5zM325 87.5h12.5V100H325zM337.5 87.5H350V100h-12.5zM350 87.5h12.5V100H350zM362.5 87.5H375V100h-12.5zM375 87.5h12.5V100H375zM387.5 87.5H400V100h-12.5zM400 87.5h12.5V100H400zM412.5 87.5H425V100h-12.5zM425 87.5h12.5V100H425zM437.5 87.5H450V100h-12.5zM450 87.5h12.5V100H450zM462.5 87.5H475V100h-12.5zM475 87.5h12.5V100H475zM487.5 87.5H500V100h-12.5zM0 100h12.5v12.5H0zM12.5 100H25v12.5H12.5zM25 100h12.5v12.5H25zM37.5 100H50v12.5H37.5zM50 100h12.5v12.5H50zM62.5 100H75v12.5H62.5zM75 100h12.5v12.5H75zM87.5 100H100v12.5H87.5zM100 100h12.5v12.5H100zM112.5 100H125v12.5h-12.5zM125 100h12.5v12.5H125zM137.5 100H150v12.5h-12.5zM150 100h12.5v12.5H150zM162.5 100H175v12.5h-12.5zM175 100h12.5v12.5H175zM187.5 100H200v12.5h-12.5zM200 100h12.5v12.5H200zM212.5 100H225v12.5h-12.5zM225 100h12.5v12.5H225zM237.5 100H250v12.5h-12.5zM250 100h12.5v12.5H250zM262.5 100H275v12.5h-12.5zM275 100h12.5v12.5H275zM287.5 100H300v12.5h-12.5zM300 100h12.5v12.5H300zM312.5 100H325v12.5h-12.5zM325 100h12.5v12.5H325zM337.5 100H350v12.5h-12.5zM350 100h12.5v12.5H350zM362.5 100H375v12.5h-12.5zM375 100h12.5v12.5H375zM387.5 100H400v12.5h-12.5zM400 100h12.5v12.5H400zM412.5 100H425v12.5h-12.5zM425 100h12.5v12.5H425zM437.5 100H450v12.5h-12.5zM450 100h12.5v12.5H450zM462.5 100H475v12.5h-12.5zM475 100h12.5v12.5H475zM487.5 100H500v12.5h-12.5zM0 112.5h12.5V125H0zM12.5 112.5H25V125H12.5zM25 112.5h12.5V125H25zM37.5 112.5H50V125H37.5zM50 112.5h12.5V125H50zM62.5 112.5H75V125H62.5zM75 112.5h12.5V125H75zM87.5 112.5H100V125H87.5zM100 112.5h12.5V125H100zM112.5 112.5H125V125h-12.5zM125 112.5h12.5V125H125zM137.5 112.5H150V125h-12.5zM150 112.5h12.5V125H150zM162.5 112.5H175V125h-12.5zM175 112.5h12.5V125H175zM187.5 112.5H200V125h-12.5zM200 112.5h12.5V125H200zM212.5 112.5H225V125h-12.5zM225 112.5h12.5V125H225zM237.5 112.5H250V125h-12.5zM250 112.5h12.5V125H250zM262.5 112.5H275V125h-12.5zM275 112.5h12.5V125H275zM287.5 112.5H300V125h-12.5zM300 112.5h12.5V125H300zM312.5 112.5H325V125h-12.5zM325 112.5h12.5V125H325zM337.5 112.5H350V125h-12.5zM350 112.5h12.5V125H350zM362.5 112.5H375V125h-12.5zM375 112.5h12.5V125H375zM387.5 112.5H400V125h-12.5zM400 112.5h12.5V125H400zM412.5 112.5H425V125h-12.5zM425 112.5h12.5V125H425zM437.5 112.5H450V125h-12.5zM450 112.5h12.5V125H450zM462.5 112.5H475V125h-12.5zM475 112.5h12.5V125H475zM487.5 112.5H500V125h-12.5zM0 125h12.5v12.5H0zM12.5 125H25v12.5H12.5zM25 125h12.5v12.5H25zM37.5 125H50v12.5H37.5zM50 125h12.5v12.5H50zM62.5 125H75v12.5H62.5zM75 125h12.5v12.5H75zM87.5 125H100v12.5H87.5zM100 125h12.5v12.5H100zM112.5 125H125v12.5h-12.5zM125 125h12.5v12.5H125zM137.5 125H150v12.5h-12.5zM150 125h12.5v12.5H150zM162.5 125H175v12.5h-12.5zM175 125h12.5v12.5H175zM187.5 125H200v12.5h-12.5zM200 125h12.5v12.5H200zM212.5 125H225v12.5h-12.5zM225 125h12.5v12.5H225zM237.5 125H250v12.5h-12.5zM250 125h12.5v12.5H250zM262.5 125H275v12.5h-12.5zM275 125h12.5v12.5H275zM287.5 125H300v12.5h-12.5zM300 125h12.5v12.5H300zM312.5 125H325v12.5h-12.5zM325 125h12.5v12.5H325zM337.5 125H350v12.5h-12.5zM350 125h12.5v12.5H350zM362.5 125H375v12.5h-12.5zM375 125h12.5v12.5H375zM387.5 125H400v12.5h-12.5zM400 125h12.5v12.5H400zM412.5 125H425v12.5h-12.5zM425 125h12.5v12.5H425zM437.5 125H450v12.5h-12.5zM450 125h12.5v12.5H450zM462.5 125H475v12.5h-12.5zM475 125h12.5v12.5H475zM487.5 125H500v12.5h-12.5zM0 137.5h12.5V150H0zM12.5 137.5H25V150H12.5zM25 137.5h12.5V150H25zM37.5 137.5H50V150H37.5zM50 137.5h12.5V150H50zM62.5 137.5H75V150H62.5zM75 137.5h12.5V150H75zM87.5 137.5H100V150H87.5zM100 137.5h12.5V150H100zM112.5 137.5H125V150h-12.5zM125 137.5h12.5V150H125zM137.5 137.5H150V150h-12.5zM150 137.5h12.5V150H150zM162.5 137.5H175V150h-12.5zM175 137.5h12.5V150H175zM187.5 137.5H200V150h-12.5zM200 137.5h12.5V150H200zM212.5 137.5H225V150h-12.5zM225 137.5h12.5V150H225zM237.5 137.5H250V150h-12.5zM250 137.5h12.5V150H250zM262.5 137.5H275V150h-12.5zM275 137.5h12.5V150H275zM287.5 137.5H300V150h-12.5zM300 137.5h12.5V150H300zM312.5 137.5H325V150h-12.5zM325 137.5h12.5V150H325zM337.5 137.5H350V150h-12.5zM350 137.5h12.5V150H350zM362.5 137.5H375V150h-12.5zM375 137.5h12.5V150H375zM387.5 137.5H400V150h-12.5zM400 137.5h12.5V150H400zM412.5 137.5H425V150h-12.5zM425 137.5h12.5V150H425zM437.5 137.5H450V150h-12.5zM450 137.5h12.5V150H450zM462.5 137.5H475V150h-12.5zM475 137.5h12.5V150H475zM487.5 137.5H500V150h-12.5zM0 150h12.5v12.5H0zM12.5 150H25v12.5H12.5zM25 150h12.5v12.5H25zM37.5 150H50v12.5H37.5zM50 150h12.5v12.5H50zM62.5 150H75v12.5H62.5zM75 150h12.5v12.5H75zM87.5 150H100v12.5H87.5zM100 150h12.5v12.5H100zM112.5 150H125v12.5h-12.5zM125 150h12.5v12.5H125zM137.5 150H150v12.5h-12.5zM150 150h12.5v12.5H150zM162.5 150H175v12.5h-12.5zM175 150h12.5v12.5H175zM187.5 150H200v12.5h-12.5zM200 150h12.5v12.5H200zM212.5 150H225v12.5h-12.5zM225 150h12.5v12.5H225zM237.5 150H250v12.5h-12.5zM250 150h12.5v12.5H250zM262.5 150H275v12.5h-12.5zM275 150h12.5v12.5H275zM287.5 150H300v12.5h-12.5zM300 150h12.5v12.5H300zM312.5 150H325v12.5h-12.5zM325 150h12.5v12.5H325zM337.5 150H350v12.5h-12.5zM350 150h12.5v12.5H350zM362.5 150H375v12.5h-12.5zM375 150h12.5v12.5H375zM387.5 150H400v12.5h-12.5zM400 150h12.5v12.5H400zM412.5 150H425v12.5h-12.5zM425 150h12.5v12.5H425zM437.5 150H450v12.5h-12.5zM450 150h12.5v12.5H450zM462.5 150H475v12.5h-12.5zM475 150h12.5v12.5H475zM487.5 150H500v12.5h-12.5zM0 162.5h12.5V175H0zM12.5 162.5H25V175H12.5zM25 162.5h12.5V175H25zM37.5 162.5H50V175H37.5zM50 162.5h12.5V175H50zM62.5 162.5H75V175H62.5zM75 162.5h12.5V175H75zM87.5 162.5H100V175H87.5zM100 162.5h12.5V175H100zM112.5 162.5H125V175h-12.5zM125 162.5h12.5V175H125zM137.5 162.5H150V175h-12.5zM150 162.5h12.5V175H150zM162.5 162.5H175V175h-12.5zM175 162.5h12.5V175H175zM187.5 162.5H200V175h-12.5zM200 162.5h12.5V175H200zM212.5 162.5H225V175h-12.5zM225 162.5h12.5V175H225zM237.5 162.5H250V175h-12.5zM250 162.5h12.5V175H250zM262.5 162.5H275V175h-12.5zM275 162.5h12.5V175H275zM287.5 162.5H300V175h-12.5zM300 162.5h12.5V175H300zM312.5 162.5H325V175h-12.5zM325 162.5h12.5V175H325zM337.5 162.5H350V175h-12.5zM350 162.5h12.5V175H350zM362.5 162.5H375V175h-12.5zM375 162.5h12.5V175H375zM387.5 162.5H400V175h-12.5zM400 162.5h12.5V175H400zM412.5 162.5H425V175h-12.5zM425 162.5h12.5V175H425zM437.5 162.5H450V175h-12.5zM450 162.5h12.5V175H450zM462.5 162.5H475V175h-12.5zM475 162.5h12.5V175H475zM487.5 162.5H500V175h-12.5zM0 175h12.5v12.5H0zM12.5 175H25v12.5H12.5zM25 175h12.5v12.5H25zM37.5 175H50v12.5H37.5zM50 175h12.5v12.5H50zM62.5 175H75v12.5H62.5zM75 175h12.5v12.5H75zM87.5 175H100v12.5H87.5zM100 175h12.5v12.5H100zM112.5 175H125v12.5h-12.5zM125 175h12.5v12.5H125zM137.5 175H150v12.5h-12.5zM150 175h12.5v12.5H150zM162.5 175H175v12.5h-12.5zM175 175h12.5v12.5H175zM187.5 175H200v12.5h-12.5zM200 175h12.5v12.5H200zM212.5 175H225v12.5h-12.5zM225 175h12.5v12.5H225zM237.5 175H250v12.5h-12.5zM250 175h12.5v12.5H250zM262.5 175H275v12.5h-12.5zM275 175h12.5v12.5H275zM287.5 175H300v12.5h-12.5zM300 175h12.5v12.5H300zM312.5 175H325v12.5h-12.5zM325 175h12.5v12.5H325zM337.5 175H350v12.5h-12.5zM350 175h12.5v12.5H350zM362.5 175H375v12.5h-12.5zM375 175h12.5v12.5H375zM387.5 175H400v12.5h-12.5zM400 175h12.5v12.5H400zM412.5 175H425v12.5h-12.5zM425 175h12.5v12.5H425zM437.5 175H450v12.5h-12.5zM450 175h12.5v12.5H450zM462.5 175H475v12.5h-12.5zM475 175h12.5v12.5H475zM487.5 175H500v12.5h-12.5zM0 187.5h12.5V200H0zM12.5 187.5H25V200H12.5zM25 187.5h12.5V200H25zM37.5 187.5H50V200H37.5zM50 187.5h12.5V200H50zM62.5 187.5H75V200H62.5zM75 187.5h12.5V200H75zM87.5 187.5H100V200H87.5zM100 187.5h12.5V200H100zM112.5 187.5H125V200h-12.5zM125 187.5h12.5V200H125zM137.5 187.5H150V200h-12.5zM150 187.5h12.5V200H150zM162.5 187.5H175V200h-12.5zM175 187.5h12.5V200H175zM187.5 187.5H200V200h-12.5zM200 187.5h12.5V200H200zM212.5 187.5H225V200h-12.5zM225 187.5h12.5V200H225zM237.5 187.5H250V200h-12.5zM250 187.5h12.5V200H250zM262.5 187.5H275V200h-12.5zM275 187.5h12.5V200H275zM287.5 187.5H300V200h-12.5zM300 187.5h12.5V200H300zM312.5 187.5H325V200h-12.5zM325 187.5h12.5V200H325zM337.5 187.5H350V200h-12.5zM350 187.5h12.5V200H350zM362.5 187.5H375V200h-12.5zM375 187.5h12.5V200H375zM387.5 187.5H400V200h-12.5zM400 187.5h12.5V200H400zM412.5 187.5H425V200h-12.5zM425 187.5h12.5V200H425zM437.5 187.5H450V200h-12.5zM450 187.5h12.5V200H450zM462.5 187.5H475V200h-12.5zM475 187.5h12.5V200H475zM487.5 187.5H500V200h-12.5zM0 200h12.5v12.5H0zM12.5 200H25v12.5H12.5zM25 200h12.5v12.5H25zM37.5 200H50v12.5H37.5zM50 200h12.5v12.5H50zM62.5 200H75v12.5H62.5zM75 200h12.5v12.5H75zM87.5 200H100v12.5H87.5zM100 200h12.5v12.5H100zM112.5 200H125v12.5h-12.5zM125 200h12.5v12.5H125zM137.5 200H150v12.5h-12.5zM150 200h12.5v12.5H150zM162.5 200H175v12.5h-12.5zM175 200h12.5v12.5H175zM187.5 200H200v12.5h-12.5zM200 200h12.5v12.5H200zM212.5 200H225v12.5h-12.5zM225 200h12.5v12.5H225zM237.5 200H250v12.5h-12.5zM250 200h12.5v12.5H250zM262.5 200H275v12.5h-12.5zM275 200h12.5v12.5H275zM287.5 200H300v12.5h-12.5zM300 200h12.5v12.5H300zM312.5 200H325v12.5h-12.5zM325 200h12.5v12.5H325zM337.5 200H350v12.5h-12.5zM350 200h12.5v12.5H350zM362.5 200H375v12.5h-12.5zM375 200h12.5v12.5H375zM387.5 200H400v12.5h-12.5zM400 200h12.5v12.5H400zM412.5 200H425v12.5h-12.5zM425 200h12.5v12.5H425zM437.5 200H450v12.5h-12.5zM450 200h12.5v12.5H450zM462.5 200H475v12.5h-12.5zM475 200h12.5v12.5H475zM487.5 200H500v12.5h-12.5zM0 212.5h12.5V225H0zM12.5 212.5H25V225H12.5zM25 212.5h12.5V225H25zM37.5 212.5H50V225H37.5zM50 212.5h12.5V225H50zM62.5 212.5H75V225H62.5zM75 212.5h12.5V225H75zM87.5 212.5H100V225H87.5zM100 212.5h12.5V225H100zM112.5 212.5H125V225h-12.5zM125 212.5h12.5V225H125zM137.5 212.5H150V225h-12.5zM150 212.5h12.5V225H150zM162.5 212.5H175V225h-12.5zM175 212.5h12.5V225H175zM187.5 212.5H200V225h-12.5zM200 212.5h12.5V225H200zM212.5 212.5H225V225h-12.5zM225 212.5h12.5V225H225zM237.5 212.5H250V225h-12.5zM250 212.5h12.5V225H250zM262.5 212.5H275V225h-12.5zM275 212.5h12.5V225H275zM287.5 212.5H300V225h-12.5zM300 212.5h12.5V225H300zM312.5 212.5H325V225h-12.5zM325 212.5h12.5V225H325zM337.5 212.5H350V225h-12.5zM350 212.5h12.5V225H350zM362.5 212.5H375V225h-12.5zM375 212.5h12.5V225H375zM387.5 212.5H400V225h-12.5zM400 212.5h12.5V225H400zM412.5 212.5H425V225h-12.5zM425 212.5h12.5V225H425zM437.5 212.5H450V225h-12.5zM450 212.5h12.5V225H450zM462.5 212.5H475V225h-12.5zM475 212.5h12.5V225H475zM487.5 212.5H500V225h-12.5zM0 225h12.5v12.5H0zM12.5 225H25v12.5H12.5zM25 225h12.5v12.5H25zM37.5 225H50v12.5H37.5zM50 225h12.5v12.5H50zM62.5 225H75v12.5H62.5zM75 225h12.5v12.5H75zM87.5 225H100v12.5H87.5zM100 225h12.5v12.5H100zM112.5 225H125v12.5h-12.5zM125 225h12.5v12.5H125zM137.5 225H150v12.5h-12.5zM150 225h12.5v12.5H150zM162.5 225H175v12.5h-12.5zM175 225h12.5v12.5H175zM187.5 225H200v12.5h-12.5zM200 225h12.5v12.5H200zM212.5 225H225v12.5h-12.5zM225 225h12.5v12.5H225zM237.5 225H250v12.5h-12.5zM250 225h12.5v12.5H250zM262.5 225H275v12.5h-12.5zM275 225h12.5v12.5H275zM287.5 225H300v12.5h-12.5zM300 225h12.5v12.5H300zM312.5 225H325v12.5h-12.5zM325 225h12.5v12.5H325zM337.5 225H350v12.5h-12.5zM350 225h12.5v12.5H350zM362.5 225H375v12.5h-12.5zM375 225h12.5v12.5H375zM387.5 225H400v12.5h-12.5zM400 225h12.5v12.5H400zM412.5 225H425v12.5h-12.5zM425 225h12.5v12.5H425zM437.5 225H450v12.5h-12.5zM450 225h12.5v12.5H450zM462.5 225H475v12.5h-12.5zM475 225h12.5v12.5H475zM487.5 225H500v12.5h-12.5zM0 237.5h12.5V250H0zM12.5 237.5H25V250H12.5zM25 237.5h12.5V250H25zM37.5 237.5H50V250H37.5zM50 237.5h12.5V250H50zM62.5 237.5H75V250H62.5zM75 237.5h12.5V250H75zM87.5 237.5H100V250H87.5zM100 237.5h12.5V250H100zM112.5 237.5H125V250h-12.5zM125 237.5h12.5V250H125zM137.5 237.5H150V250h-12.5zM150 237.5h12.5V250H150zM162.5 237.5H175V250h-12.5zM175 237.5h12.5V250H175zM187.5 237.5H200V250h-12.5zM200 237.5h12.5V250H200zM212.5 237.5H225V250h-12.5zM225 237.5h12.5V250H225zM237.5 237.5H250V250h-12.5zM250 237.5h12.5V250H250zM262.5 237.5H275V250h-12.5zM275 237.5h12.5V250H275zM287.5 237.5H300V250h-12.5zM300 237.5h12.5V250H300zM312.5 237.5H325V250h-12.5zM325 237.5h12.5V250H325zM337.5 237.5H350V250h-12.5zM350 237.5h12.5V250H350zM362.5 237.5H375V250h-12.5zM375 237.5h12.5V250H375zM387.5 237.5H400V250h-12.5zM400 237.5h12.5V250H400zM412.5 237.5H425V250h-12.5zM425 237.5h12.5V250H425zM437.5 237.5H450V250h-12.5zM450 237.5h12.5V250H450zM462.5 237.5H475V250h-12.5zM475 237.5h12.5V250H475zM487.5 237.5H500V250h-12.5zM0 250h12.5v12.5H0zM12.5 250H25v12.5H12.5zM25 250h12.5v12.5H25zM37.5 250H50v12.5H37.5zM50 250h12.5v12.5H50zM62.5 250H75v12.5H62.5zM75 250h12.5v12.5H75zM87.5 250H100v12.5H87.5zM100 250h12.5v12.5H100zM112.5 250H125v12.5h-12.5zM125 250h12.5v12.5H125zM137.5 250H150v12.5h-12.5zM150 250h12.5v12.5H150zM162.5 250H175v12.5h-12.5zM175 250h12.5v12.5H175zM187.5 250H200v12.5h-12.5zM200 250h12.5v12.5H200zM212.5 250H225v12.5h-12.5zM225 250h12.5v12.5H225zM237.5 250H250v12.5h-12.5zM250 250h12.5v12.5H250zM262.5 250H275v12.5h-12.5zM275 250h12.5v12.5H275zM287.5 250H300v12.5h-12.5zM300 250h12.5v12.5H300zM312.5 250H325v12.5h-12.5zM325 250h12.5v12.5H325zM337.5 250H350v12.5h-12.5zM350 250h12.5v12.5H350zM362.5 250H375v12.5h-12.5zM375 250h12.5v12.5H375zM387.5 250H400v12.5h-12.5zM400 250h12.5v12.5H400zM412.5 250H425v12.5h-12.5zM425 250h12.5v12.5H425zM437.5 250H450v12.5h-12.5zM450 250h12.5v12.5H450zM462.5 250H475v12.5h-12.5zM475 250h12.5v12.5H475zM487.5 250H500v12.5h-12.5zM0 262.5h12.5V275H0zM12.5 262.5H25V275H12.5zM25 262.5h12.5V275H25zM37.5 262.5H50V275H37.5zM50 262.5h12.5V275H50zM62.5 262.5H75V275H62.5zM75 262.5h12.5V275H75zM87.5 262.5H100V275H87.5zM100 262.5h12.5V275H100zM112.5 262.5H125V275h-12.5zM125 262.5h12.5V275H125zM137.5 262.5H150V275h-12.5zM150 262.5h12.5V275H150zM162.5 262.5H175V275h-12.5zM175 262.5h12.5V275H175zM187.5 262.5H200V275h-12.5zM200 262.5h12.5V275H200zM212.5 262.5H225V275h-12.5zM225 262.5h12.5V275H225zM237.5 262.5H250V275h-12.5zM250 262.5h12.5V275H250zM262.5 262.5H275V275h-12.5zM275 262.5h12.5V275H275zM287.5 262.5H300V275h-12.5zM300 262.5h12.5V275H300zM312.5 262.5H325V275h-12.5zM325 262.5h12.5V275H325zM337.5 262.5H350V275h-12.5zM350 262.5h12.5V275H350zM362.5 262.5H375V275h-12.5zM375 262.5h12.5V275H375zM387.5 262.5H400V275h-12.5zM400 262.5h12.5V275H400zM412.5 262.5H425V275h-12.5zM425 262.5h12.5V275H425zM437.5 262.5H450V275h-12.5zM450 262.5h12.5V275H450zM462.5 262.5H475V275h-12.5zM475 262.5h12.5V275H475zM487.5 262.5H500V275h-12.5zM0 275h12.5v12.5H0zM12.5 275H25v12.5H12.5zM25 275h12.5v12.5H25zM37.5 275H50v12.5H37.5zM50 275h12.5v12.5H50zM62.5 275H75v12.5H62.5zM75 275h12.5v12.5H75zM87.5 275H100v12.5H87.5zM100 275h12.5v12.5H100zM112.5 275H125v12.5h-12.5zM125 275h12.5v12.5H125zM137.5 275H150v12.5h-12.5zM150 275h12.5v12.5H150zM162.5 275H175v12.5h-12.5zM175 275h12.5v12.5H175zM187.5 275H200v12.5h-12.5zM200 275h12.5v12.5H200zM212.5 275H225v12.5h-12.5zM225 275h12.5v12.5H225zM237.5 275H250v12.5h-12.5zM250 275h12.5v12.5H250zM262.5 275H275v12.5h-12.5zM275 275h12.5v12.5H275zM287.5 275H300v12.5h-12.5zM300 275h12.5v12.5H300zM312.5 275H325v12.5h-12.5zM325 275h12.5v12.5H325zM337.5 275H350v12.5h-12.5zM350 275h12.5v12.5H350zM362.5 275H375v12.5h-12.5zM375 275h12.5v12.5H375zM387.5 275H400v12.5h-12.5zM400 275h12.5v12.5H400zM412.5 275H425v12.5h-12.5zM425 275h12.5v12.5H425zM437.5 275H450v12.5h-12.5zM450 275h12.5v12.5H450zM462.5 275H475v12.5h-12.5zM475 275h12.5v12.5H475zM487.5 275H500v12.5h-12.5zM0 287.5h12.5V300H0zM12.5 287.5H25V300H12.5zM25 287.5h12.5V300H25zM37.5 287.5H50V300H37.5zM50 287.5h12.5V300H50zM62.5 287.5H75V300H62.5zM75 287.5h12.5V300H75zM87.5 287.5H100V300H87.5zM100 287.5h12.5V300H100zM112.5 287.5H125V300h-12.5zM125 287.5h12.5V300H125zM137.5 287.5H150V300h-12.5zM150 287.5h12.5V300H150zM162.5 287.5H175V300h-12.5zM175 287.5h12.5V300H175zM187.5 287.5H200V300h-12.5zM200 287.5h12.5V300H200zM212.5 287.5H225V300h-12.5zM225 287.5h12.5V300H225zM237.5 287.5H250V300h-12.5zM250 287.5h12.5V300H250zM262.5 287.5H275V300h-12.5zM275 287.5h12.5V300H275zM287.5 287.5H300V300h-12.5zM300 287.5h12.5V300H300zM312.5 287.5H325V300h-12.5zM325 287.5h12.5V300H325zM337.5 287.5H350V300h-12.5zM350 287.5h12.5V300H350zM362.5 287.5H375V300h-12.5zM375 287.5h12.5V300H375zM387.5 287.5H400V300h-12.5zM400 287.5h12.5V300H400zM412.5 287.5H425V300h-12.5zM425 287.5h12.5V300H425zM437.5 287.5H450V300h-12.5zM450 287.5h12.5V300H450zM462.5 287.5H475V300h-12.5zM475 287.5h12.5V300H475zM487.5 287.5H500V300h-12.5zM0 300h12.5v12.5H0zM12.5 300H25v12.5H12.5zM25 300h12.5v12.5H25zM37.5 300H50v12.5H37.5zM50 300h12.5v12.5H50zM62.5 300H75v12.5H62.5zM75 300h12.5v12.5H75zM87.5 300H100v12.5H87.5zM100 300h12.5v12.5H100zM112.5 300H125v12.5h-12.5zM125 300h12.5v12.5H125zM137.5 300H150v12.5h-12.5zM150 300h12.5v12.5H150zM162.5 300H175v12.5h-12.5zM175 300h12.5v12.5H175zM187.5 300H200v12.5h-12.5zM200 300h12.5v12.5H200zM212.5 300H225v12.5h-12.5zM225 300h12.5v12.5H225zM237.5 300H250v12.5h-12.5zM250 300h12.5v12.5H250zM262.5 300H275v12.5h-12.5zM275 300h12.5v12.5H275zM287.5 300H300v12.5h-12.5zM300 300h12.5v12.5H300zM312.5 300H325v12.5h-12.5zM325 300h12.5v12.5H325zM337.5 300H350v12.5h-12.5zM350 300h12.5v12.5H350zM362.5 300H375v12.5h-12.5zM375 300h12.5v12.5H375zM387.5 300H400v12.5h-12.5zM400 300h12.5v12.5H400zM412.5 300H425v12.5h-12.5zM425 300h12.5v12.5H425zM437.5 300H450v12.5h-12.5zM450 300h12.5v12.5H450zM462.5 300H475v12.5h-12.5zM475 300h12.5v12.5H475zM487.5 300H500v12.5h-12.5zM0 312.5h12.5V325H0zM12.5 312.5H25V325H12.5zM25 312.5h12.5V325H25zM37.5 312.5H50V325H37.5zM50 312.5h12.5V325H50zM62.5 312.5H75V325H62.5zM75 312.5h12.5V325H75zM87.5 312.5H100V325H87.5zM100 312.5h12.5V325H100zM112.5 312.5H125V325h-12.5zM125 312.5h12.5V325H125zM137.5 312.5H150V325h-12.5zM150 312.5h12.5V325H150zM162.5 312.5H175V325h-12.5zM175 312.5h12.5V325H175zM187.5 312.5H200V325h-12.5zM200 312.5h12.5V325H200zM212.5 312.5H225V325h-12.5zM225 312.5h12.5V325H225zM237.5 312.5H250V325h-12.5zM250 312.5h12.5V325H250zM262.5 312.5H275V325h-12.5zM275 312.5h12.5V325H275zM287.5 312.5H300V325h-12.5zM300 312.5h12.5V325H300zM312.5 312.5H325V325h-12.5zM325 312.5h12.5V325H325zM337.5 312.5H350V325h-12.5zM350 312.5h12.5V325H350zM362.5 312.5H375V325h-12.5zM375 312.5h12.5V325H375zM387.5 312.5H400V325h-12.5zM400 312.5h12.5V325H400zM412.5 312.5H425V325h-12.5zM425 312.5h12.5V325H425zM437.5 312.5H450V325h-12.5zM450 312.5h12.5V325H450zM462.5 312.5H475V325h-12.5zM475 312.5h12.5V325H475zM487.5 312.5H500V325h-12.5zM0 325h12.5v12.5H0zM12.5 325H25v12.5H12.5zM25 325h12.5v12.5H25zM37.5 325H50v12.5H37.5zM50 325h12.5v12.5H50zM62.5 325H75v12.5H62.5zM75 325h12.5v12.5H75zM87.5 325H100v12.5H87.5zM100 325h12.5v12.5H100zM112.5 325H125v12.5h-12.5zM125 325h12.5v12.5H125zM137.5 325H150v12.5h-12.5zM150 325h12.5v12.5H150zM162.5 325H175v12.5h-12.5zM175 325h12.5v12.5H175zM187.5 325H200v12.5h-12.5zM200 325h12.5v12.5H200zM212.5 325H225v12.5h-12.5zM225 325h12.5v12.5H225zM237.5 325H250v12.5h-12.5zM250 325h12.5v12.5H250zM262.5 325H275v12.5h-12.5zM275 325h12.5v12.5H275zM287.5 325H300v12.5h-12.5zM300 325h12.5v12.5H300zM312.5 325H325v12.5h-12.5zM325 325h12.5v12.5H325zM337.5 325H350v12.5h-12.5zM350 325h12.5v12.5H350zM362.5 325H375v12.5h-12.5zM375 325h12.5v12.5H375zM387.5 325H400v12.5h-12.5zM400 325h12.5v12.5H400zM412.5 325H425v12.5h-12.5zM425 325h12.5v12.5H425zM437.5 325H450v12.5h-12.5zM450 325h12.5v12.5H450zM462.5 325H475v12.5h-12.5zM475 325h12.5v12.5H475zM487.5 325H500v12.5h-12.5zM0 337.5h12.5V350H0zM12.5 337.5H25V350H12.5zM25 337.5h12.5V350H25zM37.5 337.5H50V350H37.5zM50 337.5h12.5V350H50zM62.5 337.5H75V350H62.5zM75 337.5h12.5V350H75zM87.5 337.5H100V350H87.5zM100 337.5h12.5V350H100zM112.5 337.5H125V350h-12.5zM125 337.5h12.5V350H125zM137.5 337.5H150V350h-12.5zM150 337.5h12.5V350H150zM162.5 337.5H175V350h-12.5zM175 337.5h12.5V350H175zM187.5 337.5H200V350h-12.5zM200 337.5h12.5V350H200zM212.5 337.5H225V350h-12.5zM225 337.5h12.5V350H225zM237.5 337.5H250V350h-12.5zM250 337.5h12.5V350H250zM262.5 337.5H275V350h-12.5zM275 337.5h12.5V350H275zM287.5 337.5H300V350h-12.5zM300 337.5h12.5V350H300zM312.5 337.5H325V350h-12.5zM325 337.5h12.5V350H325zM337.5 337.5H350V350h-12.5zM350 337.5h12.5V350H350zM362.5 337.5H375V350h-12.5zM375 337.5h12.5V350H375zM387.5 337.5H400V350h-12.5zM400 337.5h12.5V350H400zM412.5 337.5H425V350h-12.5zM425 337.5h12.5V350H425zM437.5 337.5H450V350h-12.5zM450 337.5h12.5V350H450zM462.5 337.5H475V350h-12.5zM475 337.5h12.5V350H475zM487.5 337.5H500V350h-12.5z"/></g><defs><radialGradient id="a"><stop offset="0" stop-color="#fff" stop-opacity=".79"/><stop offset="82.5%" stop-color="#fff" stop-opacity="0"/></radialGradient></defs></svg>